<?xml version="1.0" encoding="utf-8"?>
<!-- Svg Vector Icons : http://www.onlinewebfonts.com/icon -->
<!DOCTYPE svg PUBLIC "-//W3C//DTD SVG 1.1//EN" "http://www.w3.org/Graphics/SVG/1.1/DTD/svg11.dtd">
<svg version="1.1" xmlns="http://www.w3.org/2000/svg" xmlns:xlink="http://www.w3.org/1999/xlink" x="0px" y="0px" width="64px" height="64px" viewBox="0 0 64 64" enable-background="new 0 0 64 64" xml:space="preserve">
<metadata> Svg Vector Icons : http://www.onlinewebfonts.com/icon </metadata>
<g><g transform="translate(0.000000,512.000000) scale(0.100000,-0.100000)"><path d="M3704.9,5020c-48.3-46.4-48.3-48.3-48.3-444.6s0-398.2,48.3-444.6c69.6-71.5,166.2-65.7,230,11.6l50.3,59.9v376.9v376.9l-56,56.1C3855.7,5083.7,3770.6,5087.6,3704.9,5020z"/><path d="M2552.9,4683.6c-61.8-63.8-69.6-112.1-29-191.4c44.5-83.1,537.4-560.5,593.4-574.1c119.8-29,233.9,100.5,191.4,212.6c-25.1,65.7-487.1,541.2-564.4,581.8C2665,4753.2,2616.7,4745.5,2552.9,4683.6z"/><path d="M4609.5,4443.9c-260.9-260.9-295.7-303.5-295.7-359.5c0-44.5,17.4-79.3,58-121.8c98.6-98.6,141.1-77.3,467.8,249.4c154.6,154.6,286.1,301.5,291.9,326.7c9.7,58-32.9,154.6-81.2,179.8C4949.7,4772.5,4918.8,4753.2,4609.5,4443.9z"/><path d="M5222.3,3228.1c-856.3-413.6-1557.9-755.8-1561.8-759.6c-7.7-7.7,318.9-624.3,504.5-956.8C5384.7-662.9,6486.4-2102.9,7300.2-2592c162.4-96.6,386.6-168.2,527.7-168.2h114l255.2-485.2c139.2-266.8,253.2-491,253.2-498.7c0-5.8-92.8-58-204.9-116c-162.4-81.2-218.4-121.8-278.3-197.1c-104.4-133.4-154.6-276.4-154.6-450.4c0-156.6,30.9-218.4,135.3-272.5c127.6-65.7,166.2-52.2,1020.6,361.5c442.6,212.6,821.5,402,842.8,419.4c52.2,44.5,88.9,141.1,88.9,233.9c0,106.3-110.2,226.2-276.4,301.5c-100.5,46.4-145,54.1-284.2,56.1c-158.5,0-172-3.9-361.5-94.7c-110.2-52.2-204.9-88.9-212.6-81.2c-9.7,7.7-129.5,228.1-268.7,491l-251.3,477.4l71.5,90.8c87,110.2,145,260.9,185.6,469.7c46.4,237.7,25.1,819.6-40.6,1204.2c-154.6,885.3-520,2052.8-1074.7,3434.8c-199.1,494.8-570.2,1356.9-597.3,1385.9C6784.1,3978.1,6078.6,3643.7,5222.3,3228.1z M6764.8,3226.2c172-390.5,429.1-1028.3,583.8-1445.8c139.2-365.3,444.6-1268,444.6-1306.7c0-21.3-232-25.1-1318.3-21.3l-1318.3,5.8l-187.5,313.1c-210.7,349.9-568.3,980-750,1324.1l-119.8,224.2l382.7,185.6c210.7,102.4,775.1,376.9,1252.5,608.9c479.4,233.9,875.6,425.3,881.4,425.3C6623.7,3541.3,6689.4,3400.2,6764.8,3226.2z M7963.2-106.2c255.1-968.4,328.6-1681.7,206.8-2037.3c-69.6-203-245.5-324.7-436.8-301.6c-477.4,58-1184.9,786.7-2108.8,2172.6c-135.3,203-247.4,375-247.4,380.8c0,5.8,568.3,11.6,1262.2,11.6h1264.1L7963.2-106.2z M9469-3736.3c38.7-15.4,63.8-34.8,58-40.6c-21.3-23.2-1393.7-684.3-1401.4-676.5c-23.2,23.2,46.4,154.6,108.2,204.9c65.7,54.1,970.3,504.5,1057.3,527.7C9360.7-3703.4,9397.4-3707.3,9469-3736.3z"/><path d="M6246.7-125.5c-133.4-54.1-197.2-179.8-156.6-313.1c40.6-139.2,203-208.8,328.6-143c226.1,117.9,172,429.1-77.3,460C6304.7-117.8,6262.2-117.8,6246.7-125.5z"/><path d="M7294.4-170c-135.3-83.1-150.8-262.9-32.9-380.8c56.1-56,75.4-63.8,164.3-63.8s108.2,7.7,164.3,63.8c36.7,36.7,69.6,92.8,77.3,133.4c27.1,143-92.8,286.1-241.6,286.1C7389.1-131.3,7329.2-148.7,7294.4-170z"/><path d="M6963.9-1070.7c-131.4-110.2-108.2-328.6,44.5-402.1c135.3-63.8,278.3-13.5,334.4,117.9c42.5,102.4,21.3,195.2-61.9,272.5c-56.1,52.2-81.2,61.9-162.4,61.9C7045-1020.5,7010.3-1032.1,6963.9-1070.7z"/><path d="M100,3605c0-83.1,9.7-338.3,19.3-566.3C239.2,520.1,606.4-1467,1105.1-2290.4c166.2-272.5,293.8-405.9,471.6-492.9l88.9-42.5v-583.7v-581.8l-230-9.7c-204.9-9.7-243.6-15.5-355.7-69.6c-148.8-67.6-272.5-185.6-326.7-307.3c-32.9-75.4-34.8-98.6-15.5-177.8c27.1-112.1,94.7-199.1,179.8-241.6c59.9-27.1,170.1-30.9,922-30.9c827.3,0,856.3,1.9,925.9,40.6c156.6,87,224.2,309.3,139.2,448.4c-61.9,102.4-204.9,224.2-324.7,278.3c-90.8,42.5-145,52.2-338.3,59.9l-228.1,9.7v585.7v585.7l83.1,36.7c172,75.4,413.7,357.6,560.6,651.4c465.8,935.5,800.2,2907.1,902.7,5315.6c9.7,255.2,19.3,487.1,19.3,518v52.2H1839.6H100V3605z M3231.4,3243.6c0-303.5-75.4-1436.2-131.4-1992.9l-13.5-135.3l-1248.7-5.8L589,1105.8l-13.5,123.7c-32.9,324.7-88.9,1067-106.3,1432.3c-11.6,224.2-25.1,481.3-30.9,572.2c-5.8,90.8-3.9,170.1,1.9,177.8c7.7,7.7,639.8,13.5,1403.3,13.5h1387.8V3243.6z M3038.1,728.8c0-27-17.4-175.9-38.7-334.4c-255.2-1824.7-616.6-2797-1082.4-2901.3c-104.4-23.2-243.6,11.6-338.3,83.1c-376.9,288-699.7,1295.1-898.8,2795C658.6,535.5,637.4,694,631.6,725l-7.7,52.2H1830h1208.1V728.8z M2494.9-4374.1c34.8-21.3,77.3-58,94.7-81.2l27.1-44.5h-775.1c-425.2,0-775.1,7.7-775.1,15.5c0,29,110.2,121.8,166.2,139.2c30.9,9.7,313.1,15.5,626.3,13.5C2390.5-4335.5,2433.1-4337.4,2494.9-4374.1z"/><path d="M1095.5,210.8c-79.3-79.2-100.5-174-59.9-270.6c79.3-193.3,353.7-195.2,444.6-3.9c46.4,96.7,27.1,191.4-56.1,274.5c-56.1,56.1-75.4,63.8-164.3,63.8C1170.8,274.6,1151.5,266.9,1095.5,210.8z"/><path d="M2158.6-228c-154.6-63.8-199.1-276.4-83.1-400.1c110.2-117.9,320.9-85,390.4,61.9c61.9,127.6,9.7,278.3-114,330.5C2278.4-204.8,2216.6-202.9,2158.6-228z"/><path d="M1499.4-892.9c-71.5-32.9-135.3-110.2-152.7-187.5c-15.5-71.5,36.7-183.6,112.1-237.7c67.7-50.3,197.2-52.2,268.7-3.9c58,36.7,112.1,139.2,112.1,208.8c0,71.5-65.7,174-137.2,212.6C1625.1-860,1580.6-858.1,1499.4-892.9z"/><path d="M4698.5,3697.8c-71.5-73.5-75.4-158.5-7.7-224.2c46.4-48.3,52.2-48.3,363.4-48.3c303.5,0,317,1.9,355.7,44.5c56,59.9,65.7,100.5,40.6,168.2c-32.9,98.6-94.7,116-411.7,116h-284.1L4698.5,3697.8z"/></g></g>
</svg>