<?xml version="1.0" standalone="no"?>
<!DOCTYPE svg PUBLIC "-//W3C//DTD SVG 20010904//EN"
 "http://www.w3.org/TR/2001/REC-SVG-20010904/DTD/svg10.dtd">
<svg version="1.0" xmlns="http://www.w3.org/2000/svg"
 width="1702.000000pt" height="1702.000000pt" viewBox="0 0 1702.000000 1702.000000"
 preserveAspectRatio="xMidYMid meet">
<metadata>
Created by potrace 1.14, written by Peter Selinger 2001-2017
</metadata>
<g transform="translate(0.000000,1702.000000) scale(0.100000,-0.100000)"
fill="#000000" stroke="none">
<path d="M6025 14695 c2 -22 7 -74 10 -115 3 -41 8 -100 10 -130 6 -58 31
-376 40 -495 3 -38 8 -90 10 -115 3 -25 12 -130 20 -235 8 -104 17 -215 20
-245 2 -30 7 -82 9 -115 3 -33 8 -88 11 -122 3 -35 7 -91 10 -125 8 -97 15
-178 20 -238 2 -30 7 -83 10 -117 3 -35 7 -89 10 -120 2 -32 7 -85 10 -118 5
-65 11 -133 20 -264 4 -47 8 -92 10 -100 1 -9 6 -61 10 -116 4 -55 8 -116 10
-135 2 -19 6 -78 10 -130 3 -52 8 -102 10 -110 2 -8 6 -60 10 -115 3 -55 8
-116 10 -135 2 -19 7 -71 10 -115 3 -44 8 -96 10 -115 2 -19 7 -75 10 -125 3
-49 8 -108 10 -130 3 -22 7 -71 10 -110 3 -38 7 -90 10 -115 2 -25 7 -81 10
-125 3 -44 7 -102 10 -130 9 -102 16 -182 20 -240 3 -33 7 -86 10 -117 3 -32
7 -85 10 -118 3 -33 7 -87 10 -120 7 -79 14 -172 20 -240 5 -61 12 -147 19
-230 3 -30 8 -91 11 -135 3 -44 8 -98 10 -120 2 -22 7 -76 10 -120 4 -44 8
-100 11 -125 2 -24 6 -81 9 -125 4 -44 8 -96 10 -115 2 -19 6 -73 10 -120 3
-47 8 -103 10 -125 2 -22 7 -74 10 -115 3 -41 7 -100 10 -130 3 -30 7 -82 10
-115 3 -33 7 -87 10 -120 3 -33 7 -87 10 -120 3 -33 7 -89 10 -125 3 -36 8
-87 10 -115 2 -27 7 -86 11 -130 4 -44 8 -96 10 -115 8 -104 4 -224 -11 -280
-2 -8 -7 -42 -11 -75 -3 -33 -8 -69 -10 -79 -2 -11 -8 -56 -14 -100 -6 -45
-13 -92 -15 -106 -2 -14 -7 -45 -10 -70 -3 -25 -12 -88 -20 -140 -7 -52 -17
-119 -20 -149 -4 -30 -9 -63 -11 -75 -2 -12 -6 -41 -9 -66 -3 -25 -8 -54 -10
-65 -2 -11 -7 -45 -10 -75 -3 -30 -7 -66 -10 -80 -2 -14 -7 -45 -10 -70 -3
-25 -10 -73 -16 -108 -5 -34 -12 -84 -15 -110 -4 -41 -15 -116 -29 -202 -2
-14 -9 -63 -15 -110 -6 -47 -13 -96 -15 -110 -2 -14 -7 -47 -11 -75 -3 -27 -7
-57 -9 -65 -1 -8 -6 -40 -10 -70 -3 -30 -8 -66 -10 -80 -2 -14 -6 -45 -10 -70
-3 -25 -8 -56 -10 -70 -2 -14 -7 -45 -10 -70 -4 -25 -8 -56 -10 -70 -2 -14 -9
-61 -15 -106 -6 -44 -12 -89 -14 -100 -2 -10 -7 -46 -11 -79 -4 -32 -8 -66
-10 -75 -3 -15 -13 -90 -21 -145 -2 -16 -6 -48 -9 -70 -12 -74 -14 -90 -20
-140 -3 -27 -7 -61 -10 -74 -2 -12 -7 -42 -9 -65 -3 -22 -15 -106 -26 -186
-11 -80 -23 -163 -25 -185 -3 -22 -8 -51 -10 -65 -2 -14 -7 -43 -10 -65 -2
-22 -20 -150 -39 -285 -19 -135 -38 -268 -41 -295 -3 -28 -10 -75 -15 -105 -5
-30 -12 -82 -16 -115 -3 -33 -8 -62 -9 -65 -2 -3 -6 -34 -10 -70 -3 -36 -8
-72 -10 -80 -2 -8 -6 -33 -9 -55 -3 -22 -12 -89 -21 -150 -8 -60 -18 -128 -21
-150 -2 -22 -7 -51 -9 -65 -2 -14 -7 -43 -10 -65 -3 -22 -14 -103 -25 -180
-11 -77 -20 -143 -20 -147 0 -5 402 -8 894 -8 l893 0 13 93 c7 50 14 101 16
111 2 11 6 42 9 70 5 48 8 68 20 141 2 17 9 64 15 106 6 41 12 84 14 95 2 10
7 48 11 84 4 36 9 72 10 80 5 29 15 95 20 140 3 25 8 56 10 70 3 14 7 45 10
69 3 23 7 55 9 70 4 23 11 68 21 141 5 31 24 178 30 222 2 18 6 49 9 68 3 19
8 55 11 80 6 41 20 138 30 200 2 14 7 50 11 80 8 72 11 91 19 142 9 55 13 84
19 133 3 22 8 60 11 85 3 25 8 52 10 60 2 8 6 42 10 75 3 33 10 87 15 120 5
33 12 80 15 105 3 25 8 52 10 60 2 8 6 42 10 75 3 33 8 71 10 85 6 34 13 76
19 128 3 23 9 61 12 85 3 23 7 53 9 67 2 14 6 43 9 65 22 159 48 344 51 365 2
14 7 45 10 70 3 25 8 56 10 70 7 51 15 106 20 150 4 25 8 56 10 70 2 14 6 39
9 55 3 17 8 54 11 84 4 30 8 62 10 71 2 9 6 41 9 71 3 30 8 65 11 79 5 23 8
45 20 140 3 25 8 56 10 70 4 25 32 228 39 285 5 34 15 107 21 145 9 55 46 327
50 365 3 22 7 51 10 65 3 14 7 48 10 75 3 28 7 61 10 75 2 14 7 43 10 65 3 22
9 63 14 90 4 28 77 235 161 460 84 226 167 451 185 500 18 50 77 207 130 350
54 143 106 283 115 310 10 28 55 149 100 270 45 121 97 261 115 310 18 50 76
206 129 347 53 142 96 260 96 263 0 2 20 55 44 117 24 62 93 248 154 413 119
323 257 694 382 1030 43 116 250 674 460 1240 210 567 438 1181 506 1365 69
184 143 385 165 445 22 61 54 145 70 187 16 43 29 81 29 86 0 5 -378 8 -857 8
l-858 -1 -36 -110 c-21 -60 -54 -164 -74 -230 -20 -66 -44 -140 -52 -165 -8
-25 -39 -124 -69 -220 -72 -230 -143 -452 -254 -800 -50 -157 -93 -292 -95
-300 -7 -26 -52 -172 -83 -265 -16 -49 -48 -151 -72 -225 -23 -74 -70 -225
-105 -335 -35 -110 -75 -238 -89 -285 -14 -47 -64 -211 -111 -365 -48 -154
-120 -390 -162 -525 -41 -135 -85 -280 -99 -322 -54 -174 -75 -244 -79 -258
-2 -8 -20 -67 -40 -130 -20 -63 -56 -185 -82 -270 -25 -85 -51 -173 -58 -195
-11 -35 -13 2 -14 270 -2 644 -11 1574 -15 1685 -4 103 -9 291 -21 715 -2 77
-6 250 -10 385 -16 685 -24 979 -30 1140 -2 69 -7 226 -11 350 -4 124 -8 254
-9 290 -1 36 -3 88 -4 115 l-1 51 -935 0 -935 0 5 -41z"/>
</g>
</svg>
